<svg width="34" height="31" viewBox="0 0 34 31" fill="none" xmlns="http://www.w3.org/2000/svg">
<path d="M20.4425 24.3092C20.1733 24.3092 19.9042 24.2188 19.6917 24.025C19.2808 23.6504 19.2808 23.0304 19.6917 22.6559L27.54 15.5L19.6917 8.3442C19.2808 7.96961 19.2808 7.34961 19.6917 6.97503C20.1025 6.60045 20.7825 6.60045 21.1933 6.97503L29.7925 14.8154C30.2033 15.19 30.2033 15.81 29.7925 16.1846L21.1933 24.025C20.9808 24.2188 20.7117 24.3092 20.4425 24.3092Z" fill="black"/>
<path d="M28.8008 16.4687H4.95825C4.37742 16.4687 3.89575 16.0296 3.89575 15.5C3.89575 14.9704 4.37742 14.5312 4.95825 14.5312H28.8008C29.3816 14.5312 29.8633 14.9704 29.8633 15.5C29.8633 16.0296 29.3816 16.4687 28.8008 16.4687Z" fill="black"/>
</svg>
